<?xml version="1.0" encoding="UTF-8" standalone="no"?><!DOCTYPE svg PUBLIC "-//W3C//DTD SVG 1.1//EN" "http://www.w3.org/Graphics/SVG/1.1/DTD/svg11.dtd"><svg width="100%" height="100%" viewBox="0 0 6946 6946" version="1.1" xmlns="http://www.w3.org/2000/svg" xmlns:xlink="http://www.w3.org/1999/xlink" xml:space="preserve" xmlns:serif="http://www.serif.com/" style="fill-rule:evenodd;clip-rule:evenodd;stroke-linejoin:round;stroke-miterlimit:2;"><g id="background"><rect x="0" y="0" width="6944.46" height="6944.46"/></g><g id="of"><g><rect x="5271.71" y="3403.67" width="868.054" height="868.054" style="fill:#ccc;"/><path d="M5271.71,1884.58l1374.42,-7.571l-1374.42,1374.41l0,-1366.84Z" style="fill:#ccc;"/><rect x="3752.63" y="1877" width="1374.43" height="3255.21" style="fill:#ccc;"/><ellipse cx="1953.12" cy="3468.43" rx="1654.83" ry="1656.2" style="fill:#ccc;"/></g></g><g id="tensorflow"><g><g id="layer1"><g id="g4550"><path id="path4508" d="M3752.75,2018.73l-0,646.311l1119.38,646.329l-0,-646.329l-1119.38,-646.311Zm-2238.79,646.311l0,646.329l559.681,323.084l-0,-646.258l-559.681,-323.155Zm1679.04,323.155l-559.681,323.174l-0,1938.81l559.681,323.174l-0,-1292.57l559.752,323.155l-0,-646.329l-559.752,-323.159l-0,-646.258Z" style="fill:#e55b2d;fill-rule:nonzero;"/><path id="path4491" d="M3752.75,2018.73l-1679.11,969.466l-0,646.258l1119.36,-646.258l-0,646.258l559.752,-323.084l-0,-1292.64Zm1679.13,323.155l-559.752,323.156l-0,646.329l559.752,-323.174l0,-646.311Zm-1119.43,1292.57l-559.699,323.159l-0,646.329l559.699,-323.155l0,-646.333Zm-559.699,969.488l-559.752,-323.155l-0,1292.57l559.752,-323.174l-0,-646.239Z" style="fill:#ed8e24;fill-rule:nonzero;"/><path id="path4506" d="M3752.75,1372.48l-2238.79,1292.57l559.681,323.155l1679.11,-969.466l1119.38,646.311l559.752,-323.156l-1679.13,-969.413Zm-0,1938.9l-559.752,323.084l559.752,323.159l559.699,-323.159l-559.699,-323.084Z" style="fill:#f8bf3c;fill-rule:nonzero;"/></g></g></g></g></svg>