<?xml version="1.0" encoding="UTF-8" standalone="no"?><!DOCTYPE svg PUBLIC "-//W3C//DTD SVG 1.1//EN" "http://www.w3.org/Graphics/SVG/1.1/DTD/svg11.dtd"><svg width="100%" height="100%" viewBox="0 0 1125 292" version="1.1" xmlns="http://www.w3.org/2000/svg" xmlns:xlink="http://www.w3.org/1999/xlink" xml:space="preserve" xmlns:serif="http://www.serif.com/" style="fill-rule:evenodd;clip-rule:evenodd;stroke-linejoin:round;stroke-miterlimit:2;"><g id="background"><rect x="0" y="0" width="1125" height="291.667"/></g><g id="of"><g><rect x="375" y="141.667" width="50" height="50" style="fill:#ccc;"/><path d="M375,54.167l79.167,-0.436l-79.167,79.166l0,-78.73Z" style="fill:#ccc;"/><rect x="287.5" y="53.731" width="79.167" height="187.5" style="fill:#ccc;"/><ellipse cx="183.848" cy="145.397" rx="95.318" ry="95.397" style="fill:#ccc;"/></g></g><g id="tensorflow"><clipPath id="_clip1"><rect x="747.276" y="25" width="215.224" height="230.768"/></clipPath><g clip-path="url(#_clip1)"><g id="layer1"><g id="g4550"><path id="path4508" d="M870.26,60.501l0,35.504l61.491,35.505l0,-35.505l-61.491,-35.504Zm-122.984,35.504l-0,35.505l30.745,17.748l-0,-35.501l-30.745,-17.752Zm92.235,17.752l-30.745,17.753l0,106.505l30.745,17.753l0,-71.005l30.749,17.752l0,-35.505l-30.749,-17.752l0,-35.501Z" style="fill:#e55b2d;fill-rule:nonzero;"/><path id="path4491" d="M870.26,60.501l-92.239,53.256l-0,35.501l61.49,-35.501l0,35.501l30.749,-17.748l0,-71.009Zm92.24,17.752l-30.749,17.752l0,35.505l30.749,-17.753l-0,-35.504Zm-61.494,71.005l-30.746,17.752l0,35.505l30.746,-17.752l-0,-35.505Zm-30.746,53.257l-30.749,-17.752l0,71.005l30.749,-17.753l0,-35.5Z" style="fill:#ed8e24;fill-rule:nonzero;"/><path id="path4506" d="M870.26,25l-122.984,71.005l30.745,17.752l92.239,-53.256l61.491,35.504l30.749,-17.752l-92.24,-53.253Zm0,106.51l-30.749,17.748l30.749,17.752l30.746,-17.752l-30.746,-17.748Z" style="fill:#f8bf3c;fill-rule:nonzero;"/></g></g></g></g></svg>